<svg width="296" height="117" viewBox="0 0 296 117" fill="none" xmlns="http://www.w3.org/2000/svg">
<path d="M0 83.35H3.50999C3.50999 98.01 15.51 109.16 31.24 109.16C47.49 109.16 56.58 98.65 56.58 82.23V0H75.58V75.86C75.58 99.44 59.01 113.15 35.74 113.15C14.82 113.15 0 100.72 0 83.35Z" fill="white"/>
<path d="M83.3498 100.4C83.3351 98.8052 83.6383 97.2238 84.2417 95.7479C84.8451 94.2721 85.7365 92.9312 86.864 91.8038C87.9914 90.6763 89.3323 89.7849 90.8082 89.1815C92.2841 88.5781 93.8654 88.2749 95.4598 88.2896C97.0457 88.2786 98.6178 88.5855 100.083 89.1922C101.548 89.7989 102.877 90.6931 103.991 91.8219C105.105 92.9508 105.982 94.2914 106.569 95.7647C107.156 97.2379 107.442 98.8139 107.41 100.4C107.459 101.985 107.185 103.563 106.602 105.038C106.02 106.513 105.142 107.854 104.023 108.977C102.904 110.101 101.568 110.984 100.095 111.573C98.6223 112.161 97.045 112.443 95.4598 112.4C93.8666 112.444 92.2808 112.166 90.7985 111.58C89.3162 110.994 87.9682 110.114 86.836 108.992C85.7039 107.87 84.8112 106.53 84.2119 105.053C83.6127 103.576 83.3194 101.993 83.3498 100.4Z" fill="white"/>
<path d="M207.49 0L158.57 111.53H151.28L102.47 0H122.39L162.55 92.27L203.03 0H207.49Z" fill="white"/>
<path d="M209.33 92.2366H177.44L169.06 111.527H166.2L197.58 39.9766H202.99L234.28 111.527H217.71L209.33 92.2366ZM208.51 90.2366L193.51 55.5865L178.38 90.2366H208.51Z" fill="white"/>
<path d="M292.93 40.0078V111.528H289.46L235.19 56.4378V111.528H232.74V40.0078H240.4L290.48 91.2178V40.0078H292.93Z" fill="white"/>
</svg>
